# xmcd CD database file
#
# Track frame offsets:
#	150
#	2591
#	25298
#	43723
#	66822
#	81046
#	99467
#	117563
#	132488
#	149603
#	167078
#	187290
#	203981
#
# Disc length: 2750 seconds
#
# Revision: 0
# Processed by: cddbd v1.5.1PL2 Copyright (c) Steve Scherf et al.
# Submitted via: CDex 1.51
#
DISCID=bf0abc0d
DTITLE=Beloslava - Слушай ме
DYEAR=1900
DGENRE=Jazz
TTITLE0=Intro
TTITLE1=Ангел
TTITLE2=После
TTITLE3=Нямам време
TTITLE4=Щрак
TTITLE5=Искам с теб
TTITLE6=Слушай ме
TTITLE7=Коледно сърце
TTITLE8=Intro2
TTITLE9=Бягай от мен
TTITLE10=Дай ми
TTITLE11=Ти и аз
TTITLE12=Coda
EXTD=
EXTT0=
EXTT1=
EXTT2=
EXTT3=
EXTT4=
EXTT5=
EXTT6=
EXTT7=
EXTT8=
EXTT9=
EXTT10=
EXTT11=
EXTT12=
PLAYORDER=
